<svg width="29" height="32" viewBox="0 0 29 32" fill="none" xmlns="http://www.w3.org/2000/svg">
<path d="M23.6487 14.1333V24.8C23.6487 25.8666 22.8292 26.8 21.8926 26.8H18.3804C17.4439 26.8 16.6243 25.8666 16.6243 24.8V20.9333C16.6243 19.3333 15.4536 18 14.0487 18C12.6439 18 11.4731 19.3333 11.4731 20.9333V24.8C11.4731 25.8666 10.6536 26.8 9.71702 26.8H6.20483C5.26824 26.8 4.44873 25.8666 4.44873 24.8V14.1333C4.44873 13.4666 4.68288 12.9333 5.15117 12.5333L12.9951 5.59995C13.5804 5.06662 14.517 5.06662 15.1024 5.59995L23.0634 12.5333C23.4146 12.9333 23.6487 13.4666 23.6487 14.1333Z" stroke="#1A1A1A" stroke-width="1.5" stroke-miterlimit="10" stroke-linecap="round" stroke-linejoin="round"/>
</svg>
