<svg width="29" height="32" viewBox="0 0 29 32" fill="none" xmlns="http://www.w3.org/2000/svg">
<path d="M16.1561 23.3333V24.3999C16.1561 25.5999 15.4536 26.7999 14.4 26.9333C13.1121 27.1999 11.9414 25.9999 11.9414 24.5333V23.3333H16.1561Z" stroke="#1A1A1A" stroke-width="1.5" stroke-miterlimit="10" stroke-linecap="round" stroke-linejoin="round"/>
<path d="M21.4244 23.3332H6.67317C6.08781 23.3332 5.50244 22.7999 5.50244 21.9999V21.7332C5.50244 20.9332 5.85366 20.1332 6.32195 19.5999C7.14147 18.7999 7.60976 17.7332 7.60976 16.5332V12.5332C7.60976 8.9332 9.83415 5.59987 12.9951 5.06653C15.2195 4.66653 17.2098 5.46653 18.6146 7.06653C19.7854 8.39987 20.4878 10.2665 20.4878 12.2665V16.5332C20.4878 17.7332 20.9561 18.7999 21.7756 19.5999C22.361 20.1332 22.5951 20.7999 22.5951 21.7332V21.9999C22.5951 22.7999 22.1268 23.3332 21.4244 23.3332Z" stroke="#1A1A1A" stroke-width="1.5" stroke-miterlimit="10" stroke-linecap="round" stroke-linejoin="round"/>
</svg>
